<svg width="226" height="96" viewBox="0 0 226 96" fill="none" xmlns="http://www.w3.org/2000/svg">
<g clip-path="url(#clip0_649_12362)">
<path d="M36.8687 16.4506H47.6272V56.7234H36.8687V16.4506Z" fill="#E1E1E4"/>
<path d="M57.6487 56.7234H68.517V27.5754H57.6487V56.7234Z" fill="#E1E1E4"/>
<path d="M38.9388 86.6017H37.1353V69.9457H39.08V71.5771C39.4093 71.2353 39.723 71.0954 40.0994 70.7847C41.009 70.0544 42.7498 69.9301 43.3771 69.9301H44.7729C46.796 69.9301 48.8191 70.0234 50.215 71.1421C51.5951 72.2141 51.7989 73.2707 51.7989 74.3583V76.9686C51.7989 78.4757 51.6891 79.5167 50.607 80.6665C49.9483 81.3657 48.2389 81.7541 45.9648 81.7541H44.3808C42.6871 81.7541 40.9776 81.7231 40.0523 81.1481C39.4877 80.7908 39.378 80.5422 38.9545 80.1071V86.5862L38.9388 86.6017ZM45.9335 80.1381C46.1687 80.1381 48.0663 80.4334 48.9132 79.6255C49.8072 78.7554 49.8542 78.1183 49.8542 77.0463V75.8499C49.8699 74.5448 49.8856 73.395 49.1014 72.6337C48.3016 71.8879 47.2822 71.5461 45.8237 71.5461H43.7222C42.64 71.5461 40.9463 71.7791 40.1464 72.354C39.0486 73.1153 39.0173 74.0165 39.0173 75.2128V77.155C39.0173 78.196 39.1584 78.9107 39.8641 79.4701C40.7424 80.1693 42.7341 80.1381 44.5847 80.1381H45.9491H45.9335Z" fill="#E1E1E4"/>
<path d="M56.0495 81.7696H54.1362V69.9301H55.9397V71.8568C56.3318 71.4528 56.614 71.0333 57.1473 70.6915C58.0099 70.1632 58.6999 69.9301 59.7349 69.9301H61.6639C62.7304 69.9301 63.9537 69.9768 65.0515 70.8003C66.4943 71.8723 66.3062 72.6181 66.3062 73.9388V75.3993H64.4713V73.7834C64.4713 73.0998 64.2361 72.556 63.7342 72.1676C63.3577 71.8723 62.8088 71.5305 62.1972 71.5305H59.7036C58.6057 71.5305 57.7903 71.7635 56.9434 72.4783C56.2534 73.0532 56.0495 73.7524 56.0495 74.6846V81.7541V81.7696Z" fill="#E1E1E4"/>
<path d="M76.9854 69.9457C77.6284 69.9457 81.016 69.9613 82.2078 71.2664C83.2899 72.4473 83.384 73.3795 83.4154 74.8244V75.7566C83.4624 77.6833 83.4154 79.3148 82.0039 80.6043C80.5611 81.9095 78.0675 81.7696 76.7345 81.7696H75.1191C73.6763 81.7696 71.5591 81.8784 70.2416 80.915C68.4852 79.6566 68.4225 78.0096 68.4068 76.5646V75.5546C68.4068 73.6124 68.5479 71.9189 70.1476 70.8313C71.3081 70.0234 73.4723 69.9301 74.5074 69.9301H77.001L76.9854 69.9457ZM70.2888 75.4148V76.114C70.3045 77.186 70.1632 78.5379 71.1827 79.4079C72.0295 80.1381 73.3782 80.1381 74.7898 80.1381H76.907C77.8165 80.1381 79.5103 80.2004 80.4984 79.5322C81.5648 78.802 81.5491 77.2483 81.5334 76.2538V74.9954C81.5334 74.3272 81.3453 73.1775 80.6395 72.4627C79.7299 71.5771 78.0362 71.5461 76.7345 71.5461H74.5388C72.8765 71.5461 71.9511 71.8723 71.4963 72.1986C70.3045 73.0221 70.3045 74.1874 70.2888 75.4148Z" fill="#E1E1E4"/>
<path d="M87.5096 86.6017H85.7062V69.9457H87.6509V71.5771C87.9802 71.2353 88.2939 71.0954 88.6702 70.7847C89.5799 70.0544 91.3207 69.9301 91.9479 69.9301H93.3438C95.3669 69.9301 97.39 70.0234 98.7857 71.1421C100.166 72.2141 100.37 73.2707 100.37 74.3583V76.9686C100.37 78.4757 100.26 79.5167 99.1778 80.6665C98.5192 81.3657 96.8254 81.7541 94.5357 81.7541H92.9517C91.2579 81.7541 89.5485 81.7231 88.6232 81.1481C88.0586 80.7908 87.9488 80.5422 87.5254 80.1071V86.5862L87.5096 86.6017ZM94.5044 80.1381C94.7396 80.1381 96.6372 80.4334 97.4841 79.6255C98.378 78.7554 98.4251 78.1183 98.4251 77.0463V75.8499C98.4408 74.5448 98.4564 73.395 97.6723 72.6337C96.8724 71.8879 95.8531 71.5461 94.3945 71.5461H92.293C91.2108 71.5461 89.5171 71.7791 88.7172 72.354C87.6195 73.1153 87.5881 74.0165 87.5881 75.2128V77.155C87.5881 78.196 87.7293 78.9107 88.435 79.4701C89.3132 80.1693 91.3049 80.1381 93.1555 80.1381H94.52H94.5044Z" fill="#E1E1E4"/>
<path d="M117.228 76.316H104.525V76.9531C104.541 77.7766 104.525 78.4913 105.058 79.0973C105.874 80.0295 108.148 80.1383 108.352 80.1383H110.924C112.304 80.1383 113.762 80.1849 114.468 79.7343C114.938 79.4391 115.33 79.0507 115.33 78.4758V78.1184H117.181V78.6312C117.181 79.4857 116.962 80.0917 116.334 80.6821C115.08 81.9251 112.57 81.7852 111.3 81.7852H108.995C107.113 81.7852 105.544 81.7852 104.258 80.7287C102.643 79.3925 102.58 77.9941 102.549 76.114V75.0576C102.549 73.768 102.674 72.6958 103.772 71.3441C104.682 70.2254 107.207 69.9768 109.481 69.9613H110.767C113.276 69.9768 115.017 70.1633 116.099 71.4374C117.385 72.96 117.212 73.8301 117.197 75.3838V76.3316L117.228 76.316ZM115.33 74.5759V73.7834C115.33 73.0842 115.064 72.556 114.484 72.1676C113.574 71.515 111.99 71.5461 110.39 71.5305H109.198C107.756 71.5461 105.685 71.4218 104.792 72.8357C104.541 73.2396 104.509 73.9077 104.509 74.0787V74.5603H115.315L115.33 74.5759Z" fill="#E1E1E4"/>
<path d="M121.51 81.7696H119.597V69.9301H121.4V71.8568C121.793 71.4528 122.075 71.0333 122.608 70.6915C123.471 70.1632 124.161 69.9301 125.196 69.9301H127.125C128.191 69.9301 129.415 69.9768 130.512 70.8003C131.955 71.8723 131.767 72.6181 131.767 73.9388V75.3993H129.932V73.7834C129.932 73.0998 129.697 72.556 129.195 72.1676C128.819 71.8723 128.27 71.5305 127.658 71.5305H125.164C124.067 71.5305 123.251 71.7635 122.404 72.4783C121.714 73.0532 121.51 73.7524 121.51 74.6846V81.7541V81.7696Z" fill="#E1E1E4"/>
<path d="M140.126 80.1383H141.741C142.823 80.1383 143.372 80.0917 143.952 79.5012C144.203 79.2215 144.376 78.771 144.376 78.2738V76.4248H146.116V77.8387C146.116 79.1905 146.289 79.7187 144.83 80.9773C144.172 81.5367 142.651 81.7541 142.07 81.7541H140.675C139.686 81.7541 137.585 81.692 136.566 80.014C136.126 79.2682 135.97 78.2116 135.97 76.9842V71.5305H133.037L133.1 69.9301H135.907V67.0557H137.757V69.9301H145.693V71.5305H137.805V76.9842C137.805 77.3416 137.805 78.9574 138.432 79.5323C138.824 79.9052 139.42 80.1227 140.11 80.1227L140.126 80.1383Z" fill="#E1E1E4"/>
<path d="M150.037 69.9457L155.746 80.3091L160.561 69.9457H162.788L156.326 83.1369C155.84 84.1158 155.338 84.644 154.413 85.1723C153.519 85.7006 152.719 85.7472 151.606 85.7472H150.382V84.0847H151.119C152.076 84.0847 152.907 84.1158 153.566 83.6652C153.942 83.3855 154.225 83.1214 154.46 82.6708L154.774 82.0959L147.857 69.9301H150.022L150.037 69.9457Z" fill="#E1E1E4"/>
<path d="M129.838 41.0929C129.838 39.8343 129.603 38.1097 128.724 37.2085C127.689 36.0743 125.164 35.8723 122.796 35.8723H121.369C119.111 35.8723 116.946 36.4937 115.833 37.6746C115.206 38.3738 114.657 40.0984 114.657 41.2793V56.7079H103.867V41.5123C103.867 40.1761 103.631 38.1874 102.722 37.2396C101.624 36.0276 99.4755 35.8723 97.6249 35.8723H95.5233C93.6258 35.8723 91.2106 35.8412 89.752 37.3172C88.8894 38.1874 88.6072 40.2227 88.6072 41.4347V56.7079H77.6133V27.5598H87.9014V32.858C88.764 31.9569 89.2814 30.9003 90.4735 29.9991C92.9199 28.0881 95.0999 27.6064 98.2208 27.5753H100.667C103.992 27.622 107.897 28.5542 109.999 30.2011C111.504 31.382 112.179 32.4696 112.931 34.2719C113.324 32.625 114.045 31.5218 115.033 30.3875C117.37 27.7618 120.961 27.5598 122.467 27.5598H126.654C129.9 27.6064 135.044 28.1812 137.695 30.9313C140.063 33.3552 140.549 36.8511 140.549 38.5292V56.7079H129.869V41.0773L129.838 41.0929Z" fill="#E1E1E4"/>
<path d="M225.347 9.83167C225.347 9.83167 202.81 3.39921 189.495 24.6077C189.495 24.6077 205.194 32.9202 225.347 9.83167ZM188.209 0.820007C188.209 0.820007 179.443 11.4476 187.974 23.5512C187.974 23.5512 196.176 17.041 188.209 0.820007ZM175.051 47.2456V48.2711C175.051 49.0169 174.66 49.5297 174.031 49.9181C172.84 50.695 170.346 50.4619 168.527 50.4619H166.269C163.415 50.4619 160.529 50.7415 159.149 48.7372C158.553 47.8671 158.522 45.3346 158.679 44.7752H185.763V42.7709C185.763 42.4912 185.763 42.2115 185.763 41.9318V27.5753H165.594C161.281 27.622 153.942 27.9638 151.292 30.6362C148.406 33.5728 148.249 38.2029 148.249 39.6789V56.8788H163.916C164.936 56.8788 165.924 56.8788 166.833 56.8788H169.955C174.377 56.8788 181.858 57.1585 184.696 52.7614C185.559 51.3942 185.92 49.0013 185.92 48.6906V47.2456H175.051ZM158.679 37.4882C158.679 36.7734 158.913 36.3073 159.353 35.8102C160.137 34.8313 162.912 34.5982 164.81 34.5982H168.731C170.708 34.5982 173.044 34.7536 173.828 35.2197C174.66 35.7325 175.334 36.556 175.334 37.6125V38.7156H158.679V37.5037V37.4882Z" fill="#E1E1E4"/>
</g>
<defs>
<clipPath id="clip0_649_12362">
<rect width="188.478" height="85.7818" fill="white" transform="translate(36.8687 0.820007)"/>
</clipPath>
</defs>
</svg>
