<svg width="220" height="94" viewBox="0 0 220 94" fill="none" xmlns="http://www.w3.org/2000/svg">
<g clip-path="url(#clip0_649_12373)">
<path d="M35.6191 16.1759H46.1303V55.5229H35.6191V16.1759Z" fill="black"/>
<path d="M55.9213 55.5229H66.5397V27.045H55.9213V55.5229Z" fill="black"/>
<path d="M37.6417 84.7143H35.8796V68.4413H37.7796V70.0352C38.1013 69.7012 38.4078 69.5645 38.7755 69.2609C39.6642 68.5475 41.365 68.426 41.9779 68.426H43.3416C45.3182 68.426 47.2948 68.5172 48.6585 69.6101C50.0069 70.6575 50.206 71.6898 50.206 72.7524V75.3027C50.206 76.7751 50.0987 77.7922 49.0416 78.9156C48.398 79.5987 46.7279 79.9782 44.5061 79.9782H42.9585C41.3037 79.9782 39.6336 79.9478 38.7295 79.3861C38.1779 79.037 38.0707 78.7941 37.657 78.369V84.6991L37.6417 84.7143ZM44.4755 78.3994C44.7053 78.3994 46.5593 78.6879 47.3867 77.8985C48.2601 77.0484 48.306 76.4259 48.306 75.3786V74.2097C48.3214 72.9346 48.3367 71.8112 47.5705 71.0674C46.7891 70.3388 45.7932 70.0048 44.3682 70.0048H42.315C41.2578 70.0048 39.6029 70.2325 38.8215 70.7942C37.7489 71.538 37.7183 72.4184 37.7183 73.5873V75.4848C37.7183 76.5018 37.8562 77.2002 38.5457 77.7467C39.4037 78.4298 41.3497 78.3994 43.1577 78.3994H44.4908H44.4755Z" fill="black"/>
<path d="M54.3588 79.9933H52.4895V68.426H54.2516V70.3084C54.6347 69.9137 54.9104 69.5039 55.4315 69.1699C56.2742 68.6537 56.9483 68.426 57.9596 68.426H59.8442C60.8862 68.426 62.0813 68.4716 63.1539 69.2762C64.5635 70.3235 64.3797 71.0522 64.3797 72.3425V73.7694H62.587V72.1907C62.587 71.5228 62.3572 70.9915 61.8668 70.612C61.499 70.3235 60.9628 69.9896 60.3652 69.9896H57.929C56.8563 69.9896 56.0597 70.2173 55.2322 70.9156C54.5581 71.4773 54.3588 72.1604 54.3588 73.0712V79.9782V79.9933Z" fill="black"/>
<path d="M74.8134 68.4413C75.4416 68.4413 78.7513 68.4565 79.9158 69.7316C80.973 70.8853 81.0649 71.7961 81.0956 73.2078V74.1186C81.1415 76.001 81.0956 77.5949 79.7165 78.8548C78.3069 80.13 75.8706 79.9933 74.5683 79.9933H72.99C71.5804 79.9933 69.5118 80.0996 68.2247 79.1584C66.5086 77.9288 66.4474 76.3197 66.432 74.9079V73.9212C66.432 72.0237 66.5699 70.3691 68.1329 69.3065C69.2667 68.5172 71.3811 68.426 72.3924 68.426H74.8287L74.8134 68.4413ZM68.2707 73.7846V74.4678C68.2861 75.5151 68.1481 76.8359 69.1441 77.6859C69.9715 78.3994 71.2892 78.3994 72.6683 78.3994H74.7368C75.6254 78.3994 77.2803 78.4601 78.2456 77.8074C79.2876 77.0939 79.2722 75.5759 79.2569 74.6043V73.3748C79.2569 72.722 79.0731 71.5988 78.3835 70.9004C77.4949 70.0352 75.84 70.0048 74.5683 70.0048H72.4231C70.799 70.0048 69.8949 70.3235 69.4506 70.6424C68.2861 71.4469 68.2861 72.5855 68.2707 73.7846Z" fill="black"/>
<path d="M85.0957 84.7143H83.3337V68.4413H85.2337V70.0352C85.5555 69.7012 85.8619 69.5645 86.2296 69.2609C87.1183 68.5475 88.8191 68.426 89.4319 68.426H90.7957C92.7723 68.426 94.7489 68.5172 96.1125 69.6101C97.4609 70.6575 97.6601 71.6898 97.6601 72.7524V75.3027C97.6601 76.7751 97.5529 77.7922 96.4956 78.9156C95.8521 79.5987 94.1973 79.9782 91.9602 79.9782H90.4126C88.7578 79.9782 87.0876 79.9478 86.1837 79.3861C85.6321 79.037 85.5248 78.7941 85.111 78.369V84.6991L85.0957 84.7143ZM91.9296 78.3994C92.1594 78.3994 94.0134 78.6879 94.8408 77.8985C95.7141 77.0484 95.7602 76.4259 95.7602 75.3786V74.2097C95.7755 72.9346 95.7907 71.8112 95.0246 71.0674C94.2432 70.3388 93.2473 70.0048 91.8223 70.0048H89.7691C88.7118 70.0048 87.0569 70.2325 86.2755 70.7942C85.203 71.538 85.1723 72.4184 85.1723 73.5873V75.4848C85.1723 76.5018 85.3103 77.2002 85.9998 77.7467C86.8578 78.4298 88.8037 78.3994 90.6118 78.3994H91.9448H91.9296Z" fill="black"/>
<path d="M114.131 74.6651H101.72V75.2875C101.735 76.0921 101.72 76.7903 102.241 77.3824C103.038 78.2932 105.259 78.3994 105.458 78.3994H107.971C109.32 78.3994 110.745 78.445 111.434 78.0047C111.894 77.7163 112.277 77.3368 112.277 76.7752V76.426H114.085V76.927C114.085 77.7619 113.87 78.3539 113.258 78.9307C112.032 80.1451 109.58 80.0084 108.339 80.0084H106.087C104.248 80.0084 102.716 80.0084 101.459 78.9763C99.8811 77.6707 99.8199 76.3045 99.7892 74.4677V73.4355C99.7892 72.1756 99.9117 71.1281 100.984 69.8074C101.873 68.7145 104.34 68.4715 106.562 68.4564H107.818C110.27 68.4715 111.97 68.6538 113.028 69.8985C114.284 71.3862 114.116 72.2362 114.1 73.7542V74.6803L114.131 74.6651ZM112.277 72.9649V72.1907C112.277 71.5076 112.017 70.9915 111.45 70.612C110.561 69.9744 109.013 70.0048 107.45 69.9895H106.286C104.876 70.0048 102.854 69.8833 101.98 71.2647C101.735 71.6594 101.705 72.3121 101.705 72.4792V72.9497H112.262L112.277 72.9649Z" fill="black"/>
<path d="M118.315 79.9933H116.445V68.426H118.207V70.3084C118.59 69.9137 118.866 69.5039 119.387 69.1699C120.23 68.6537 120.904 68.426 121.915 68.426H123.8C124.842 68.426 126.037 68.4716 127.11 69.2762C128.519 70.3235 128.335 71.0522 128.335 72.3425V73.7694H126.543V72.1907C126.543 71.5228 126.313 70.9915 125.823 70.612C125.455 70.3235 124.919 69.9896 124.321 69.9896H121.885C120.812 69.9896 120.015 70.2173 119.188 70.9156C118.514 71.4773 118.315 72.1604 118.315 73.0712V79.9782V79.9933Z" fill="black"/>
<path d="M136.502 78.3995H138.08C139.137 78.3995 139.674 78.3539 140.241 77.777C140.486 77.5038 140.654 77.0636 140.654 76.5778V74.7713H142.355V76.1528C142.355 77.4734 142.524 77.9895 141.099 79.2191C140.455 79.7657 138.969 79.9781 138.402 79.9781H137.038C136.073 79.9781 134.02 79.9175 133.024 78.278C132.595 77.5493 132.441 76.517 132.441 75.3179V69.9896H129.576L129.637 68.426H132.38V65.6177H134.188V68.426H141.941V69.9896H134.234V75.3179C134.234 75.667 134.234 77.2457 134.847 77.8074C135.23 78.1717 135.812 78.3842 136.487 78.3842L136.502 78.3995Z" fill="black"/>
<path d="M146.186 68.4413L151.763 78.5664L156.468 68.4413H158.643L152.33 81.3292C151.855 82.2855 151.365 82.8016 150.461 83.3178C149.587 83.8339 148.806 83.8794 147.718 83.8794H146.523V82.2552H147.243C148.178 82.2552 148.99 82.2855 149.633 81.8454C150.001 81.5721 150.277 81.314 150.507 80.8737L150.813 80.3121L144.056 68.426H146.17L146.186 68.4413Z" fill="black"/>
<path d="M126.451 40.2516C126.451 39.022 126.221 37.3371 125.363 36.4566C124.352 35.3484 121.885 35.151 119.571 35.151H118.177C115.97 35.151 113.856 35.7582 112.768 36.912C112.155 37.5951 111.618 39.28 111.618 40.4338V55.5077H101.077V40.6615C101.077 39.3559 100.847 37.413 99.9582 36.4869C98.8856 35.3028 96.7865 35.151 94.9784 35.151H92.9252C91.0712 35.151 88.7116 35.1207 87.2866 36.5628C86.4438 37.413 86.168 39.4015 86.168 40.5856V55.5077H75.4269V27.0297H85.4785V32.2061C86.3212 31.3257 86.8268 30.2934 87.9914 29.4129C90.3816 27.5459 92.5115 27.0752 95.5606 27.0449H97.9509C101.199 27.0905 105.015 28.0013 107.068 29.6103C108.539 30.764 109.198 31.8266 109.933 33.5875C110.316 31.9784 111.021 30.9006 111.986 29.7924C114.269 27.227 117.778 27.0297 119.249 27.0297H123.34C126.512 27.0752 131.538 27.6369 134.127 30.3237C136.441 32.6919 136.916 36.1074 136.916 37.7469V55.5077H126.481V40.2364L126.451 40.2516Z" fill="black"/>
<path d="M219.764 9.70923C219.764 9.70923 197.746 3.42466 184.736 24.1455C184.736 24.1455 200.075 32.2669 219.764 9.70923ZM183.48 0.904755C183.48 0.904755 174.915 11.288 183.25 23.1133C183.25 23.1133 191.264 16.7528 183.48 0.904755ZM170.624 46.2629V47.2649C170.624 47.9935 170.242 48.4945 169.628 48.874C168.464 49.633 166.028 49.4053 164.25 49.4053H162.044C159.256 49.4053 156.436 49.6785 155.088 47.7203C154.506 46.8701 154.475 44.3959 154.629 43.8493H181.09V41.8912C181.09 41.6179 181.09 41.3446 181.09 41.0714V27.0449H161.385C157.171 27.0905 150.001 27.4245 147.411 30.0354C144.592 32.9045 144.439 37.4281 144.439 38.8702V55.6746H159.746C160.742 55.6746 161.708 55.6746 162.595 55.6746H165.645C169.966 55.6746 177.275 55.9479 180.048 51.6519C180.891 50.3161 181.243 47.9783 181.243 47.6747V46.2629H170.624ZM154.629 36.7299C154.629 36.0316 154.858 35.5762 155.287 35.0904C156.053 34.1341 158.765 33.9063 160.619 33.9063H164.45C166.381 33.9063 168.664 34.0582 169.43 34.5136C170.242 35.0145 170.901 35.8191 170.901 36.8514V37.9291H154.629V36.745V36.7299Z" fill="url(#paint0_linear_649_12373)"/>
</g>
<defs>
<linearGradient id="paint0_linear_649_12373" x1="182.102" y1="0.904755" x2="182.102" y2="55.6899" gradientUnits="userSpaceOnUse">
<stop stop-color="#95C11F"/>
<stop offset="0.29" stop-color="#A8C813"/>
<stop offset="0.73" stop-color="#C1D005"/>
<stop offset="1" stop-color="#CAD400"/>
</linearGradient>
<clipPath id="clip0_649_12373">
<rect width="184.145" height="83.8095" fill="white" transform="translate(35.619 0.904755)"/>
</clipPath>
</defs>
</svg>
