<svg viewBox="0 0 20 20" fill="none" xmlns="http://www.w3.org/2000/svg">
<path d="M4.32479 15.9375C4.17598 15.785 4.07554 15.6064 4.02345 15.4018C3.97509 15.1972 3.97509 14.9925 4.02345 14.7879C4.07554 14.587 4.17226 14.4159 4.31363 14.2745L8.32033 10.2623L4.31363 6.25556C4.17226 6.11791 4.0774 5.94864 4.02904 5.74775C3.98067 5.54314 3.98067 5.33852 4.02904 5.13391C4.0774 4.9293 4.17598 4.75073 4.32479 4.5982C4.47732 4.44567 4.6559 4.34522 4.86051 4.29686C5.06884 4.24849 5.27345 4.24849 5.47435 4.29686C5.67524 4.34522 5.84823 4.44009 5.99332 4.58146L10 8.58815L14.0011 4.58704C14.1499 4.43823 14.3248 4.33964 14.5257 4.29128C14.7266 4.24291 14.9275 4.24477 15.1284 4.29686C15.333 4.34894 15.5097 4.45125 15.6585 4.60378C15.8147 4.75259 15.9171 4.9293 15.9654 5.13391C16.0175 5.3348 16.0194 5.53756 15.971 5.74217C15.9226 5.94678 15.824 6.12163 15.6752 6.26672L11.6797 10.2623L15.6752 14.269C15.824 14.414 15.9226 14.587 15.971 14.7879C16.0194 14.9925 16.0175 15.1953 15.9654 15.3962C15.9171 15.6008 15.8147 15.7794 15.6585 15.9319C15.5097 16.0844 15.333 16.1867 15.1284 16.2388C14.9275 16.2909 14.7266 16.2928 14.5257 16.2444C14.3248 16.196 14.1499 16.0975 14.0011 15.9486L10 11.9475L5.99332 15.9542C5.84823 16.0919 5.67524 16.1849 5.47435 16.2332C5.27345 16.2853 5.0707 16.2853 4.86609 16.2332C4.66148 16.1849 4.48104 16.0863 4.32479 15.9375Z" fill="#AEAEB6"/>
</svg>
