<svg viewBox="0 0 28 28" fill="none" xmlns="http://www.w3.org/2000/svg">
<path d="M5.65625 14.3594C5.65625 14.1771 5.70052 14.013 5.78906 13.8672C5.8776 13.7214 5.99479 13.6042 6.14062 13.5156C6.29167 13.4271 6.45573 13.3828 6.63281 13.3828H13.0234V6.99219C13.0234 6.82031 13.0651 6.65885 13.1484 6.50781C13.237 6.35677 13.3568 6.23698 13.5078 6.14844C13.6589 6.0599 13.8203 6.01562 13.9922 6.01562C14.1745 6.01562 14.3385 6.0599 14.4844 6.14844C14.6354 6.23698 14.7552 6.35677 14.8438 6.50781C14.9323 6.65885 14.9766 6.82031 14.9766 6.99219V13.3828H21.3594C21.5417 13.3828 21.7057 13.4271 21.8516 13.5156C21.9974 13.6042 22.1146 13.7214 22.2031 13.8672C22.2917 14.013 22.3359 14.1771 22.3359 14.3594C22.3359 14.5365 22.2917 14.7005 22.2031 14.8516C22.1146 14.9974 21.9974 15.1146 21.8516 15.2031C21.7057 15.2917 21.5417 15.3359 21.3594 15.3359H14.9766V21.7188C14.9766 21.901 14.9323 22.0651 14.8438 22.2109C14.7552 22.3568 14.6354 22.474 14.4844 22.5625C14.3385 22.651 14.1745 22.6953 13.9922 22.6953C13.8203 22.6953 13.6589 22.651 13.5078 22.5625C13.3568 22.474 13.237 22.3568 13.1484 22.2109C13.0651 22.0651 13.0234 21.901 13.0234 21.7188V15.3359H6.63281C6.45573 15.3359 6.29167 15.2917 6.14062 15.2031C5.99479 15.1146 5.8776 14.9974 5.78906 14.8516C5.70052 14.7005 5.65625 14.5365 5.65625 14.3594Z" fill="#AEAEB6"/>
</svg>
